<svg width="60" height="60" viewBox="0 0 60 60" fill="none" xmlns="http://www.w3.org/2000/svg">
<rect width="60" height="60" rx="10" fill="#F5F6FA"/>
<path d="M15.0987 36.5H23.5746V34.6286H18.1896V34.544L20.3207 32.3768C22.7234 30.0707 23.3874 28.9478 23.3874 27.5533C23.3874 25.4826 21.7031 23.9673 19.2159 23.9673C16.7649 23.9673 15.0263 25.4886 15.0263 27.837H17.1573C17.1573 26.5753 17.9542 25.7844 19.1857 25.7844C20.3629 25.7844 21.2383 26.5028 21.2383 27.668C21.2383 28.7003 20.6104 29.4368 19.391 30.6744L15.0987 34.8821V36.5ZM27.6495 24.1364H25.0838L28.9414 30.3182L25.0355 36.5H27.6193L30.3722 32.0025H30.4688L33.2216 36.5H35.8175L31.9478 30.3182L35.7571 24.1364H33.2035L30.4688 28.6641H30.3722L27.6495 24.1364ZM37.5154 36.5H45.2004V34.6225H39.7551V24.1364H37.5154V36.5Z" fill="#1D1E20"/>
</svg>
