<svg width="26" height="13" viewBox="0 0 26 13" fill="none" xmlns="http://www.w3.org/2000/svg">
<path d="M14.1722 0.588004C14.0915 0.600204 14.0139 0.89145 13.8579 1.04317C13.7439 1.15267 13.6015 1.14582 13.5259 1.2812C13.4971 1.33177 13.5064 1.4181 13.4739 1.50099C13.4102 1.66677 13.186 1.68159 13.186 1.86222C13.1852 2.05728 13.373 2.09454 13.5355 2.23294C13.6624 2.34435 13.6748 2.42115 13.8284 2.47514C13.9596 2.51889 14.1547 2.3759 14.3305 2.42724C14.4748 2.46946 14.6129 2.49987 14.6455 2.64512C14.6742 2.77897 14.6435 2.98656 14.4686 2.96262C14.4096 2.95616 14.1539 2.87174 13.8397 2.90443C13.4607 2.94666 13.0281 3.06792 12.9858 3.48204C12.9625 3.7136 13.2547 3.98661 13.5367 3.9311C13.7318 3.89343 13.6395 3.66799 13.7458 3.55846C13.8851 3.41818 14.6742 4.04821 15.4078 4.04821C15.7166 4.04821 15.9463 3.97179 16.1744 3.73756C16.1957 3.71968 16.2217 3.68128 16.2547 3.67899C16.2858 3.68128 16.3401 3.7113 16.3579 3.72424C16.9488 4.18965 17.3953 5.12316 19.5667 5.13418C19.872 5.13568 20.2199 5.27867 20.5039 5.53266C20.7573 5.76234 20.9055 6.11936 21.0494 6.48173C21.2667 7.02549 21.6562 7.55441 22.2466 8.14302C22.2788 8.17457 22.7649 8.54494 22.8037 8.57269C22.8099 8.57649 22.8456 8.66014 22.8332 8.70689C22.8189 9.05977 22.7665 10.086 23.547 10.1324C23.7379 10.1419 23.6878 10.0104 23.6878 9.91986C23.6875 9.74114 23.6541 9.56357 23.7503 9.38068C23.8818 9.12898 23.4714 9.01299 23.4834 8.46887C23.4919 8.06316 23.1443 8.13234 22.9678 7.82322C22.8662 7.64412 22.7758 7.54909 22.7824 7.33003C22.822 6.09733 22.5147 5.28741 22.3615 5.08855C22.242 4.93835 22.143 4.87866 22.2524 4.80907C22.9038 4.38738 23.0516 3.99496 23.0516 3.99496C23.398 3.19685 23.7096 2.46791 24.1391 2.14702C24.2256 2.08083 24.4475 1.91849 24.5837 1.8546C24.9844 1.66942 25.1954 1.55727 25.3118 1.44621C25.4961 1.27017 25.6416 0.903241 25.4651 0.680801C25.2455 0.406258 24.8657 0.62414 24.6981 0.721468C23.5005 1.4181 23.324 2.64701 22.9092 3.35275C22.5783 3.91663 22.0402 4.33072 21.5592 4.36457C21.1984 4.3908 20.8097 4.31932 20.4225 4.15277C19.4809 3.74821 18.9657 3.22576 18.8443 3.13337C18.5913 2.9421 16.6275 1.05267 15.0365 0.975486C15.0365 0.975486 14.8391 0.588031 14.7894 0.581563C14.673 0.567097 14.5539 0.813119 14.4686 0.841667C14.3883 0.867869 14.2533 0.575067 14.1722 0.588004ZM7.16809 11.8648C7.01833 11.8614 6.8911 11.7408 6.8911 11.5918L6.89149 6.72775H5.25588V12.0895C5.25588 12.3523 5.47311 12.5667 5.73963 12.5667H8.59847C8.86691 12.5667 9.08147 12.3523 9.08147 12.0895V6.72775H7.44742L7.44586 11.5918C7.44586 11.7408 7.3186 11.8614 7.16809 11.8648ZM12.6444 6.72775H10.1689C9.876 6.72775 9.63741 6.96122 9.63741 7.25135V12.5667H11.2745V7.69093C11.2757 7.5415 11.3991 7.42324 11.5512 7.42324C11.704 7.42324 11.8266 7.53883 11.8301 7.68675V12.5667H13.4606V7.6867C13.4626 7.5388 13.5852 7.42321 13.7376 7.42321C13.8889 7.42321 14.0139 7.54147 14.015 7.6909V12.5667H15.6522V7.25135C15.6522 6.96122 15.4132 6.72775 15.1203 6.72775H12.6444ZM3.06704 7.70117C3.06821 7.5388 2.9332 7.42321 2.79004 7.42321H2.51227V10.3765H2.79004C2.93437 10.3765 3.06823 10.264 3.06704 10.1024V7.70117ZM4.16456 11.0994H2.51227V12.5667H0.877441V6.72775H4.17506C4.47026 6.72775 4.7007 6.96275 4.7007 7.25364V10.5735C4.7007 10.8648 4.46135 11.0994 4.16456 11.0994ZM21.2624 11.261C20.9338 11.261 20.658 11.5393 20.658 11.8766C20.658 12.215 20.9338 12.491 21.2729 12.491C21.6092 12.491 21.8816 12.215 21.8816 11.8766C21.8816 11.5385 21.6092 11.261 21.2728 11.261H21.2624ZM21.9987 11.8747C21.9987 12.2713 21.6744 12.5937 21.2729 12.5937C20.8671 12.5937 20.5412 12.2736 20.5412 11.8747C20.5412 11.4834 20.8671 11.1564 21.2608 11.1564C21.6744 11.1564 21.9987 11.4736 21.9987 11.8747Z" fill="#1D1E20"/>
</svg>
