<svg width="60" height="60" viewBox="0 0 60 60" fill="none" xmlns="http://www.w3.org/2000/svg">
<rect width="60" height="60" rx="10" fill="#F5F6FA"/>
<path d="M31.9386 27.5352H34.0938C34.0515 25.4464 32.2706 23.9673 29.6385 23.9673C27.0426 23.9673 25.0927 25.4283 25.0987 27.6136C25.0987 29.3885 26.3604 30.4087 28.3949 30.9339L29.8015 31.2962C31.1357 31.6342 32.017 32.0508 32.0231 33.0107C32.017 34.0671 31.0149 34.7734 29.554 34.7734C28.1534 34.7734 27.0668 34.1456 26.9762 32.8477H24.7727C24.8633 35.3047 26.6925 36.6871 29.5721 36.6871C32.5362 36.6871 34.2567 35.2081 34.2628 33.0288C34.2567 30.8857 32.4879 29.9077 30.6286 29.467L29.4695 29.1772C28.4553 28.9357 27.3565 28.5071 27.3686 27.4748C27.3746 26.5451 28.2077 25.8629 29.6083 25.8629C30.9425 25.8629 31.8239 26.4847 31.9386 27.5352Z" fill="#1D1E20"/>
</svg>
