<svg width="34" height="12" viewBox="0 0 34 12" fill="none" xmlns="http://www.w3.org/2000/svg">
<path d="M5.34375 3C5.29688 2.60417 5.10677 2.29688 4.77344 2.07812C4.4401 1.85937 4.03125 1.75 3.54688 1.75C3.19271 1.75 2.88281 1.80729 2.61719 1.92187C2.35417 2.03646 2.14844 2.19401 2 2.39453C1.85417 2.59505 1.78125 2.82292 1.78125 3.07812C1.78125 3.29167 1.83203 3.47526 1.93359 3.62891C2.03776 3.77995 2.17057 3.90625 2.33203 4.00781C2.49349 4.10677 2.66276 4.1888 2.83984 4.25391C3.01693 4.31641 3.17969 4.36719 3.32812 4.40625L4.14063 4.625C4.34896 4.67969 4.58073 4.75521 4.83594 4.85156C5.09375 4.94792 5.33984 5.07943 5.57422 5.24609C5.8112 5.41016 6.00651 5.62109 6.16016 5.87891C6.3138 6.13672 6.39063 6.45312 6.39063 6.82812C6.39063 7.26042 6.27734 7.65104 6.05078 8C5.82682 8.34896 5.4987 8.6263 5.06641 8.83203C4.63672 9.03776 4.11458 9.14063 3.5 9.14063C2.92708 9.14063 2.43099 9.04818 2.01172 8.86328C1.59505 8.67839 1.26693 8.42057 1.02734 8.08984C0.790365 7.75911 0.65625 7.375 0.625 6.9375H1.625C1.65104 7.23958 1.7526 7.48958 1.92969 7.6875C2.10938 7.88281 2.33594 8.02865 2.60938 8.125C2.88542 8.21875 3.18229 8.26562 3.5 8.26562C3.86979 8.26562 4.20182 8.20573 4.49609 8.08594C4.79036 7.96354 5.02344 7.79427 5.19531 7.57812C5.36719 7.35937 5.45313 7.10417 5.45313 6.8125C5.45313 6.54687 5.37891 6.33073 5.23047 6.16406C5.08203 5.9974 4.88672 5.86198 4.64453 5.75781C4.40234 5.65365 4.14063 5.5625 3.85938 5.48437L2.875 5.20312C2.25 5.02344 1.75521 4.76693 1.39062 4.43359C1.02604 4.10026 0.84375 3.66406 0.84375 3.125C0.84375 2.67708 0.964844 2.28646 1.20703 1.95312C1.45182 1.61719 1.77995 1.35677 2.19141 1.17187C2.60547 0.984375 3.06771 0.890625 3.57813 0.890625C4.09375 0.890625 4.55208 0.983073 4.95313 1.16797C5.35417 1.35026 5.67188 1.60026 5.90625 1.91797C6.14323 2.23568 6.26823 2.59635 6.28125 3H5.34375ZM10.4678 3V3.78125H7.3584V3H10.4678ZM8.26465 1.5625H9.18652V7.28125C9.18652 7.54167 9.22428 7.73698 9.2998 7.86719C9.37793 7.99479 9.47689 8.08073 9.59668 8.125C9.71908 8.16667 9.84798 8.1875 9.9834 8.1875C10.085 8.1875 10.1683 8.18229 10.2334 8.17187C10.2985 8.15885 10.3506 8.14844 10.3896 8.14062L10.5771 8.96875C10.5146 8.99219 10.4274 9.01563 10.3154 9.03906C10.2035 9.0651 10.0615 9.07813 9.88965 9.07813C9.62923 9.07813 9.37402 9.02214 9.12402 8.91016C8.87663 8.79818 8.6709 8.6276 8.50684 8.39844C8.34538 8.16927 8.26465 7.88021 8.26465 7.53125V1.5625ZM11.8545 9V3H12.7451V3.90625H12.8076C12.917 3.60938 13.1149 3.36849 13.4014 3.18359C13.6878 2.9987 14.0107 2.90625 14.3701 2.90625C14.4378 2.90625 14.5225 2.90755 14.624 2.91016C14.7256 2.91276 14.8024 2.91667 14.8545 2.92188V3.85937C14.8232 3.85156 14.7516 3.83984 14.6396 3.82422C14.5303 3.80599 14.4144 3.79687 14.292 3.79687C14.0003 3.79687 13.7399 3.85807 13.5107 3.98047C13.2842 4.10026 13.1045 4.26693 12.9717 4.48047C12.8415 4.69141 12.7764 4.93229 12.7764 5.20312V9H11.8545ZM18.2021 9.125C17.6605 9.125 17.1852 8.99609 16.7764 8.73828C16.3701 8.48047 16.0524 8.11979 15.8232 7.65625C15.5967 7.19271 15.4834 6.65104 15.4834 6.03125C15.4834 5.40625 15.5967 4.86068 15.8232 4.39453C16.0524 3.92839 16.3701 3.56641 16.7764 3.30859C17.1852 3.05078 17.6605 2.92188 18.2021 2.92188C18.7438 2.92188 19.2178 3.05078 19.624 3.30859C20.0329 3.56641 20.3506 3.92839 20.5771 4.39453C20.8063 4.86068 20.9209 5.40625 20.9209 6.03125C20.9209 6.65104 20.8063 7.19271 20.5771 7.65625C20.3506 8.11979 20.0329 8.48047 19.624 8.73828C19.2178 8.99609 18.7438 9.125 18.2021 9.125ZM18.2021 8.29688C18.6136 8.29688 18.9521 8.19141 19.2178 7.98047C19.4834 7.76953 19.68 7.49219 19.8076 7.14844C19.9352 6.80469 19.999 6.43229 19.999 6.03125C19.999 5.63021 19.9352 5.25651 19.8076 4.91016C19.68 4.5638 19.4834 4.28385 19.2178 4.07031C18.9521 3.85677 18.6136 3.75 18.2021 3.75C17.7907 3.75 17.4521 3.85677 17.1865 4.07031C16.9209 4.28385 16.7243 4.5638 16.5967 4.91016C16.4691 5.25651 16.4053 5.63021 16.4053 6.03125C16.4053 6.43229 16.4691 6.80469 16.5967 7.14844C16.7243 7.49219 16.9209 7.76953 17.1865 7.98047C17.4521 8.19141 17.7907 8.29688 18.2021 8.29688ZM23.25 5.39062V9H22.3281V3H23.2187V3.9375H23.2969C23.4375 3.63281 23.651 3.38802 23.9375 3.20313C24.224 3.01563 24.5938 2.92188 25.0469 2.92188C25.4531 2.92188 25.8086 3.00521 26.1133 3.17187C26.418 3.33594 26.6549 3.58594 26.8242 3.92187C26.9935 4.25521 27.0781 4.67708 27.0781 5.1875V9H26.1563V5.25C26.1563 4.77865 26.0339 4.41146 25.7891 4.14844C25.5443 3.88281 25.2083 3.75 24.7812 3.75C24.487 3.75 24.224 3.8138 23.9922 3.94141C23.763 4.06901 23.582 4.25521 23.4492 4.5C23.3164 4.74479 23.25 5.04167 23.25 5.39062ZM31.1846 11.375C30.7393 11.375 30.3564 11.3177 30.0361 11.2031C29.7158 11.0911 29.4489 10.9427 29.2354 10.7578C29.0244 10.5755 28.8564 10.3802 28.7314 10.1719L29.4658 9.65625C29.5492 9.76563 29.6546 9.89063 29.7822 10.0312C29.9098 10.1745 30.0843 10.2982 30.3057 10.4023C30.5296 10.5091 30.8226 10.5625 31.1846 10.5625C31.6689 10.5625 32.0687 10.4453 32.3838 10.2109C32.6989 9.97656 32.8564 9.60937 32.8564 9.10937V7.89062H32.7783C32.7106 8 32.6143 8.13542 32.4893 8.29688C32.3669 8.45573 32.1898 8.59766 31.958 8.72266C31.7288 8.84505 31.4189 8.90625 31.0283 8.90625C30.5439 8.90625 30.109 8.79167 29.7236 8.5625C29.3408 8.33333 29.0374 8 28.8135 7.5625C28.5921 7.125 28.4814 6.59375 28.4814 5.96875C28.4814 5.35417 28.5895 4.81901 28.8057 4.36328C29.0218 3.90495 29.3226 3.55078 29.708 3.30078C30.0934 3.04818 30.5387 2.92188 31.0439 2.92188C31.4346 2.92188 31.7445 2.98698 31.9736 3.11719C32.2054 3.24479 32.3825 3.39062 32.5049 3.55469C32.6299 3.71615 32.7262 3.84896 32.7939 3.95312H32.8877V3H33.7783V9.17188C33.7783 9.6875 33.6611 10.1068 33.4268 10.4297C33.195 10.7552 32.8825 10.9935 32.4893 11.1445C32.0986 11.2982 31.6637 11.375 31.1846 11.375ZM31.1533 8.07812C31.5231 8.07812 31.8356 7.99349 32.0908 7.82422C32.346 7.65495 32.54 7.41146 32.6729 7.09375C32.8057 6.77604 32.8721 6.39583 32.8721 5.95312C32.8721 5.52083 32.807 5.13932 32.6768 4.80859C32.5465 4.47786 32.3538 4.21875 32.0986 4.03125C31.8434 3.84375 31.5283 3.75 31.1533 3.75C30.7627 3.75 30.4372 3.84896 30.1768 4.04687C29.9189 4.24479 29.7249 4.51042 29.5947 4.84375C29.4671 5.17708 29.4033 5.54687 29.4033 5.95312C29.4033 6.36979 29.4684 6.73828 29.5986 7.05859C29.7314 7.3763 29.9268 7.6263 30.1846 7.80859C30.445 7.98828 30.7679 8.07812 31.1533 8.07812Z" fill="#34C559"/>
</svg>
